# xmcd
# 
# Track frame offsets:
#     150
#     20980
#     40777
#     57149
#     74694
#     91537
#     109004
#     134656
#     154212
#     168384
#     185630
#     198031
#     215462
#     233734
#     245610
#     261358
#     280236
#     297984
#     316914
#     337610
# 
# Disc length: 4748
# 
# Revision: 0
# Processed by: cddbd v1.5.2PL0 Copyright (c) Steve Scherf et al.
# Submitted via: fre:ac v1.0.31
# 
DISCID=27128a14
DTITLE=Various Artist - C'était mieux avant - Les années 80, vol. 2
DYEAR=1986
DGENRE=
TTITLE0=Johnny Hallyday - Je te promets
TTITLE1=Joe Jackson - Steppin' Out
TTITLE2=Soul II Soul - Keep On Movin'
TTITLE3=Nik Kershaw - The Riddle
TTITLE4=Wet Wet Wet - Sweet Little Mystery
TTITLE5=Neneh Cherry - Manchild (Radio Edit)
TTITLE6=Simple Minds - Mandela Day
TTITLE7=Daniel Balavoine - L'Aziza
TTITLE8=UB40 - I Got You Babe (Remastered)
TTITLE9=Kool and The Gang - Fresh (Single Version)
TTITLE10=The La's - There She Goes
TTITLE11=Womack and Womack - Teardrops (Single Version)
TTITLE12=Diana Ross - Upside Down
TTITLE13=Les Forbans - Tape des mains
TTITLE14=Johnny Hates Jazz - I Don't Want To Be A Hero
TTITLE15=Elli Medeiros - A Bailar Calypso
TTITLE16=Boy George - Everything I Own
TTITLE17=Culture Club - The War Song
TTITLE18=Love and Money - Halleluiah Man
TTITLE19=Stephan Eicher - Two People In A Room
EXTD=
EXTT0=
EXTT1=
EXTT2=
EXTT3=
EXTT4=
EXTT5=
EXTT6=
EXTT7=
EXTT8=
EXTT9=
EXTT10=
EXTT11=
EXTT12=
EXTT13=
EXTT14=
EXTT15=
EXTT16=
EXTT17=
EXTT18=
EXTT19=
PLAYORDER=
